<?xml version="1.0" standalone="no"?>
<!DOCTYPE svg PUBLIC "-//W3C//DTD SVG 20010904//EN"
 "http://www.w3.org/TR/2001/REC-SVG-20010904/DTD/svg10.dtd">
<svg version="1.0" xmlns="http://www.w3.org/2000/svg"
 width="300.000000pt" height="163.000000pt" viewBox="0 0 300.000000 163.000000"
 preserveAspectRatio="xMidYMid meet">
<metadata>
Created by potrace 1.10, written by Peter Selinger 2001-2011
</metadata>
<g transform="translate(0.000000,163.000000) scale(0.100000,-0.100000)"
fill="#000000" stroke="none">
<path d="M2462 1584 c-29 -7 -65 -20 -80 -28 -71 -37 -171 -141 -153 -159 11
-11 34 1 26 14 -4 5 1 9 9 9 8 0 24 12 35 26 12 15 21 24 21 21 0 -3 11 5 25
19 48 48 110 67 216 68 53 1 107 -4 120 -10 85 -38 128 -63 159 -94 19 -19 35
-37 35 -40 1 -3 13 -27 27 -55 46 -89 51 -174 18 -286 -19 -63 -49 -114 -77
-132 -7 -4 -27 -21 -45 -38 -64 -58 -112 -74 -223 -74 -89 0 -106 3 -159 28
-63 31 -146 101 -146 124 0 8 -4 12 -9 9 -5 -4 -12 0 -14 6 -3 7 -6 -1 -6 -18
-1 -27 8 -39 62 -83 34 -28 82 -58 107 -67 25 -9 53 -20 63 -25 10 -5 56 -9
104 -8 68 1 99 7 149 28 65 27 174 113 174 137 0 8 4 14 9 14 10 0 51 92 58
129 12 73 15 151 4 151 -6 0 -10 8 -9 18 1 9 -4 37 -11 61 -56 191 -284 311
-489 255z"/>
<path d="M370 1581 c-51 -7 -142 -50 -182 -85 -51 -46 -98 -118 -118 -182 -60
-195 22 -401 194 -488 60 -31 168 -50 237 -44 59 6 162 55 216 102 42 38 100
123 89 133 -3 3 -38 -28 -78 -69 -108 -110 -185 -145 -301 -133 -90 8 -140 27
-202 75 -68 52 -114 126 -132 209 -52 240 111 453 347 454 77 1 190 -25 190
-43 0 -6 6 -10 12 -10 7 0 44 -32 83 -70 l71 -71 65 63 c36 35 94 79 130 98
61 33 69 35 164 35 92 0 105 -3 159 -30 32 -16 61 -36 63 -42 3 -7 11 -13 18
-13 7 0 20 -10 28 -22 9 -13 36 -45 60 -71 29 -30 48 -61 52 -85 4 -20 10 -31
12 -24 8 21 -27 103 -68 158 -117 158 -325 208 -504 120 -66 -33 -126 -84
-162 -142 -13 -19 -13 -19 -25 1 -27 42 -115 122 -159 143 -76 37 -157 47
-259 33z"/>
<path d="M1725 1569 c-70 -24 -158 -87 -185 -132 -21 -34 -16 -58 7 -30 8 10
11 11 7 3 -4 -9 -3 -12 2 -7 5 5 9 12 9 16 0 22 102 100 163 124 63 25 203 23
262 -4 71 -32 135 -77 150 -104 7 -13 16 -22 20 -20 4 2 12 -7 18 -20 7 -14
18 -25 26 -25 8 0 17 -6 20 -12 3 -7 4 -4 3 7 -2 11 -8 19 -14 18 -6 -1 -17
12 -24 30 -19 45 -90 109 -157 142 -80 39 -219 46 -307 14z"/>
<path d="M2530 1411 c-7 -11 -18 -17 -23 -14 -5 3 -8 0 -5 -8 4 -13 0 -21 -29
-53 -6 -7 -19 -40 -29 -72 -9 -32 -20 -64 -25 -70 -12 -15 -42 -135 -35 -142
10 -9 14 0 44 84 16 43 47 121 68 171 l39 93 41 0 c41 0 42 0 64 -57 13 -32
26 -62 30 -68 4 -5 26 -63 50 -127 29 -76 47 -113 52 -104 8 15 -13 96 -37
143 -8 15 -15 36 -15 45 0 9 -4 19 -9 22 -4 3 -18 33 -30 66 -12 33 -27 60
-32 60 -6 0 -8 4 -5 8 6 10 -57 42 -82 42 -10 0 -24 -9 -32 -19z"/>
<path d="M326 1404 c-13 -13 -16 -44 -16 -185 0 -217 -7 -206 150 -208 115 -2
117 -1 134 23 21 33 20 48 -5 80 -16 21 -29 26 -64 26 -76 0 -75 -1 -75 120 0
144 -6 160 -64 160 -27 0 -51 -6 -60 -16z m94 -149 l0 -145 80 0 80 0 0 -35 0
-35 -120 0 -120 0 0 180 0 180 40 0 40 0 0 -145z"/>
<path d="M1093 1406 c-17 -19 -17 -356 0 -376 19 -24 70 -23 101 1 l27 21 -2
156 c-1 191 -8 212 -72 212 -23 -1 -47 -7 -54 -14z m97 -186 l0 -180 -42 0
-43 0 3 180 3 180 39 0 40 0 0 -180z"/>
<path d="M1674 1395 c-18 -28 -26 -96 -28 -255 l-1 -104 28 -14 c51 -25 97 7
97 69 0 23 5 39 12 39 6 0 8 -3 5 -7 -12 -12 46 -63 71 -63 28 0 62 17 62 31
0 13 29 43 31 32 1 -4 3 -23 5 -42 4 -49 33 -75 77 -67 36 7 56 35 51 71 -1
11 -5 72 -8 135 -9 184 -16 200 -87 200 -43 0 -66 -23 -96 -95 -23 -57 -39
-63 -53 -20 -6 18 -24 52 -41 74 -26 36 -34 41 -69 41 -31 0 -43 -5 -56 -25z
m135 -85 c20 -47 42 -96 48 -110 10 -24 10 -24 23 14 7 22 28 72 46 113 33 73
34 73 73 73 l39 0 6 -82 c4 -46 10 -127 14 -180 l7 -98 -42 0 -43 0 0 117 c0
70 -4 113 -9 107 -5 -5 -25 -47 -44 -94 -32 -78 -37 -85 -65 -88 -29 -3 -31
-1 -68 95 l-39 97 -7 -109 c-4 -60 -4 -113 -2 -117 3 -4 -16 -8 -41 -8 l-46 0
5 58 c3 31 8 98 11 147 3 50 8 105 12 123 5 31 7 33 45 30 39 -3 39 -4 77 -88z"/>
<path d="M2566 1299 c-2 -8 -11 -34 -20 -59 -9 -25 -16 -49 -16 -53 0 -4 20
-7 45 -7 25 0 45 3 45 8 0 9 -40 115 -46 121 -2 2 -5 -2 -8 -10z"/>
<path d="M2500 1095 c-4 -11 -9 -29 -11 -40 -4 -16 -11 -19 -42 -17 -28 3 -37
0 -37 -12 0 -8 10 -16 23 -18 22 -3 77 21 77 35 0 4 9 16 20 27 31 31 64 25
109 -20 31 -32 47 -40 75 -40 20 0 36 4 36 10 0 11 -40 23 -65 18 -13 -2 -21
7 -29 36 l-11 39 -69 1 c-60 2 -69 -1 -76 -19z"/>
<path d="M1531 1068 c-20 -59 -135 -178 -205 -212 -143 -69 -267 -57 -403 39
-24 17 -43 34 -43 38 0 9 -13 22 -43 46 -15 12 -17 11 -17 -9 0 -28 80 -106
146 -142 149 -81 344 -52 470 68 46 44 88 115 108 182 11 35 -1 26 -13 -10z"/>
<path d="M2175 974 c-27 -30 -56 -61 -63 -69 -7 -8 -24 -18 -37 -21 -13 -3
-26 -12 -29 -19 -7 -19 -127 -55 -182 -55 -51 0 -164 28 -164 40 0 4 -11 11
-24 14 -26 6 -115 87 -134 121 -10 18 -11 18 -12 2 0 -35 32 -78 90 -122 79
-57 136 -75 246 -76 79 -1 97 2 156 29 74 34 149 97 168 142 7 17 19 30 26 30
8 0 14 9 14 20 0 11 -1 20 -2 19 -2 0 -25 -25 -53 -55z"/>
<path d="M2469 726 c-4 -4 -495 -9 -1090 -12 -596 -3 -1087 -8 -1092 -13 -4
-4 -6 -158 -5 -342 l3 -334 1250 0 1250 0 3 337 c2 323 1 338 -17 347 -22 12
-293 27 -302 17z m289 -48 c18 -18 17 -611 -1 -626 -9 -8 -371 -11 -1233 -9
l-1219 2 -3 310 c-1 170 0 315 3 322 6 18 2435 19 2453 1z"/>
<path d="M350 365 l0 -275 590 0 590 0 0 275 0 275 -590 0 -590 0 0 -275z
m1133 221 c3 -8 5 -113 4 -233 l-2 -218 -534 -3 c-386 -1 -538 1 -547 9 -11 9
-14 56 -14 219 0 115 3 215 6 224 6 14 63 16 544 16 458 0 539 -2 543 -14z"/>
<path d="M596 477 c-23 -17 -35 -152 -16 -197 17 -41 38 -45 138 -30 1 0 2 5
2 10 0 6 -27 10 -60 10 l-60 0 0 100 c0 82 3 100 15 100 12 0 15 -16 15 -85
l0 -85 44 0 c35 0 45 -4 49 -20 3 -13 11 -18 20 -14 8 3 18 1 22 -5 11 -19 40
-12 56 14 l15 26 14 -26 c17 -33 53 -33 68 -1 9 20 17 24 49 23 26 -1 44 -9
56 -24 17 -21 47 -26 63 -11 3 4 16 2 29 -4 17 -7 30 -6 53 6 39 20 61 20 84
-1 15 -13 22 -14 44 -4 23 10 26 16 21 45 -7 44 -68 167 -89 180 -27 16 -49
-2 -81 -68 -30 -62 -47 -65 -47 -8 0 41 -23 82 -45 82 -8 0 -30 -14 -50 -31
l-36 -32 -32 32 c-35 33 -64 40 -73 17 -10 -26 -37 -28 -56 -4 -14 19 -21 21
-35 12 -14 -8 -19 -28 -23 -85 l-5 -74 -34 2 c-41 2 -51 15 -51 74 0 32 -6 52
-20 67 -24 26 -22 25 -44 9z m204 -107 c0 -82 -3 -100 -15 -100 -12 0 -15 17
-15 93 0 52 3 97 7 100 18 19 23 -1 23 -93z m131 45 c18 -30 37 -54 41 -53 4
2 23 25 40 52 52 78 58 73 58 -43 0 -85 -2 -101 -16 -101 -13 0 -15 11 -12 70
2 39 1 70 -2 70 -3 0 -17 -21 -32 -45 -15 -25 -31 -45 -36 -45 -5 0 -24 21
-41 48 l-31 47 0 -72 c0 -58 -3 -73 -15 -73 -12 0 -15 18 -15 100 0 120 11
128 61 45z m331 -46 c44 -110 41 -99 25 -99 -8 0 -19 11 -25 25 -10 21 -18 25
-56 25 -38 0 -45 -3 -50 -25 -4 -14 -13 -25 -21 -25 -8 0 -15 1 -15 3 0 3 34
90 66 165 7 19 19 32 26 30 7 -3 29 -47 50 -99z"/>
<path d="M1192 387 c-17 -46 -16 -47 19 -47 24 0 30 3 25 16 -3 9 -9 27 -12
40 -8 33 -18 30 -32 -9z"/>
<path d="M1890 370 l0 -101 68 3 c64 3 67 4 67 28 0 22 -5 25 -37 28 l-37 3
-3 67 c-3 65 -4 67 -30 70 l-28 3 0 -101z m50 20 l0 -70 40 0 c33 0 40 -3 40
-20 0 -18 -7 -20 -60 -20 l-60 0 0 90 c0 83 1 90 20 90 18 0 20 -7 20 -70z"/>
<path d="M2052 457 c-8 -9 -8 -17 0 -27 8 -12 9 -12 4 3 -8 26 21 33 46 11 21
-19 21 -19 9 4 -13 24 -43 29 -59 9z"/>
<path d="M2195 433 c-16 -21 -30 -40 -32 -42 -1 -2 -13 4 -24 15 l-22 19 18
-27 c9 -16 20 -28 24 -28 3 0 20 21 36 45 17 25 38 45 48 45 15 0 17 -11 17
-90 0 -83 -1 -90 -20 -90 -17 0 -20 7 -20 45 0 25 -2 45 -5 45 -3 0 -17 -12
-30 -27 -23 -27 -23 -28 -44 -9 -12 11 -21 14 -21 8 0 -6 9 -16 21 -23 17 -9
25 -7 44 11 l24 22 3 -38 c3 -34 6 -39 28 -39 25 0 25 0 25 95 0 89 -1 95 -21
98 -14 2 -29 -9 -49 -35z"/>
<path d="M2318 459 c-10 -5 -18 -15 -18 -21 0 -6 8 -4 18 5 28 25 87 22 107
-5 14 -21 14 -23 -1 -26 -9 -2 -21 1 -27 7 -18 18 -47 13 -47 -9 0 -11 4 -20
10 -20 5 0 7 7 4 15 -7 17 11 21 21 5 9 -15 65 -12 65 3 0 7 -9 23 -20 35 -23
24 -81 30 -112 11z"/>
<path d="M2053 345 c0 -33 2 -45 4 -27 2 18 2 45 0 60 -2 15 -4 0 -4 -33z"/>
<path d="M2300 381 c0 -6 20 -20 45 -31 46 -20 61 -37 25 -27 -11 3 -20 1 -20
-5 0 -5 10 -8 23 -6 32 4 27 30 -8 41 -16 5 -38 16 -47 25 -12 10 -18 11 -18
3z"/>
<path d="M2413 374 c29 -16 38 -59 15 -82 -18 -18 -88 -15 -110 5 -10 9 -18
11 -18 5 0 -32 106 -44 134 -16 24 23 20 70 -6 88 -12 9 -27 16 -33 16 -5 -1
2 -8 18 -16z"/>
<path d="M2100 326 c0 -41 -2 -45 -27 -49 l-28 -4 28 -2 c15 0 29 5 31 12 11
33 14 87 5 87 -5 0 -9 -20 -9 -44z"/>
</g>
</svg>
